<?xml version="1.0" standalone="no"?>
<!DOCTYPE svg PUBLIC "-//W3C//DTD SVG 20010904//EN"
 "http://www.w3.org/TR/2001/REC-SVG-20010904/DTD/svg10.dtd">
<svg version="1.0" xmlns="http://www.w3.org/2000/svg"
 width="16.000000pt" height="16.000000pt" viewBox="0 0 16.000000 16.000000"
 preserveAspectRatio="xMidYMid meet">
<metadata>
Created by potrace 1.11, written by Peter Selinger 2001-2013
</metadata>
<g transform="translate(0.000000,16.000000) scale(0.006250,-0.006250)"
fill="#000000" stroke="none">
<path d="M825 2524 c9 -21 43 -104 76 -184 33 -80 82 -197 109 -260 27 -63 65
-155 85 -205 56 -137 80 -193 114 -275 18 -41 38 -92 46 -112 34 -91 33 -91
85 38 68 169 157 386 185 449 47 106 235 567 235 577 0 8 -55 9 -217 3 -259
-10 -261 -10 -526 0 l-209 8 17 -39z"/>
<path d="M0 1281 c0 -259 2 -471 4 -471 2 0 140 57 307 126 167 69 374 154
459 189 85 35 200 82 255 105 55 23 108 44 118 47 9 3 17 9 17 13 0 3 -78 37
-172 75 -165 65 -204 81 -300 124 -24 10 -60 24 -80 30 -21 7 -40 17 -43 22
-4 5 -14 9 -23 9 -9 0 -30 7 -45 15 -15 8 -43 17 -62 21 -21 4 -32 10 -28 17
4 6 0 8 -10 4 -10 -3 -17 -2 -17 4 0 6 -9 8 -21 4 -13 -5 -19 -3 -15 3 3 5
-10 13 -29 16 -19 4 -35 12 -35 17 0 6 -9 7 -21 4 -14 -5 -19 -4 -15 4 5 7 1
9 -8 5 -9 -3 -16 -2 -16 4 0 5 -22 15 -50 22 -30 7 -47 16 -43 23 3 6 1 7 -6
3 -13 -9 -53 2 -47 13 3 4 -3 7 -12 8 -9 1 -27 4 -39 8 l-23 7 0 -471z"/>
<path d="M2540 1732 c-34 -10 -148 -55 -198 -78 -30 -14 -63 -26 -75 -27 -12
-1 -25 -6 -29 -11 -3 -5 -20 -9 -38 -9 -17 0 -26 -4 -19 -8 7 -4 -6 -10 -30
-14 -22 -4 -41 -11 -41 -16 0 -5 -14 -9 -31 -9 -16 0 -28 -4 -25 -9 3 -5 -10
-12 -29 -15 -19 -4 -35 -12 -35 -18 0 -5 -7 -8 -15 -4 -8 3 -15 1 -15 -4 0 -5
-7 -7 -15 -4 -8 4 -15 2 -15 -3 0 -5 -20 -14 -45 -21 -25 -7 -45 -16 -45 -22
0 -5 -7 -7 -15 -4 -8 4 -15 1 -15 -6 0 -6 -4 -9 -9 -6 -9 6 -112 -34 -122 -47
-3 -5 -9 -8 -13 -8 -8 1 -23 -5 -138 -51 -53 -21 -102 -38 -109 -38 -28 0 11
-20 156 -79 83 -34 175 -73 206 -86 31 -14 59 -25 63 -25 3 0 25 -9 49 -19 23
-11 92 -40 152 -64 61 -24 199 -81 308 -126 110 -46 201 -81 203 -78 2 2 3
209 2 459 -3 399 -5 454 -18 450z"/>
<path d="M1205 973 c-43 -104 -100 -240 -126 -303 -36 -89 -166 -402 -269
-646 l-9 -22 489 0 488 0 -20 46 c-10 26 -23 56 -28 67 -5 11 -37 88 -71 170
-34 83 -69 168 -79 190 -9 22 -77 185 -151 363 -73 177 -136 322 -140 322 -3
0 -41 -84 -84 -187z"/>
<path d="M2505 639 c-16 -10 -26 -19 -22 -19 11 0 67 29 67 35 0 9 -15 4 -45
-16z"/>
<path d="M55 640 c9 -15 45 -32 45 -22 0 5 -12 14 -26 20 -14 7 -23 8 -19 2z"/>
<path d="M115 602 c21 -22 175 -132 175 -124 0 4 -10 14 -21 22 -12 8 -34 24
-48 35 -59 46 -125 87 -106 67z"/>
<path d="M930 589 c0 -5 5 -7 10 -4 6 3 10 8 10 11 0 2 -4 4 -10 4 -5 0 -10
-5 -10 -11z"/>
<path d="M2365 544 c-97 -75 -281 -250 -305 -290 -10 -19 -25 -34 -32 -34 -9
0 -9 3 0 12 17 17 15 38 -3 38 -8 0 -15 -4 -15 -10 0 -5 5 -10 10 -10 6 0 3
-11 -5 -24 -9 -13 -14 -28 -13 -33 2 -4 -7 -19 -18 -31 -20 -22 -23 -22 -38
-6 -24 23 -30 12 -7 -13 17 -18 18 -23 6 -39 -14 -18 -15 -18 -12 3 1 12 -2
22 -8 22 -11 0 -11 -25 0 -52 5 -13 4 -16 -9 -11 -8 3 -15 9 -14 12 2 19 -3
32 -13 32 -6 0 -9 -9 -6 -19 2 -10 1 -24 -3 -31 -4 -7 -7 7 -6 31 1 31 5 44
15 44 8 0 16 6 19 14 3 10 0 12 -12 8 -17 -7 -22 8 -6 18 17 10 11 20 -21 34
-37 16 -46 9 -25 -21 20 -28 20 -38 2 -38 -9 0 -12 7 -9 18 3 12 -1 19 -11 19
-9 0 -16 -2 -16 -5 0 -16 36 -102 43 -102 4 0 5 -4 2 -10 -9 -15 27 -71 44
-68 9 2 30 29 48 62 79 141 282 367 423 471 80 59 87 65 75 64 -6 0 -41 -25
-80 -55z m-509 -431 c-10 -10 -19 5 -10 18 6 11 8 11 12 0 2 -7 1 -15 -2 -18z
m56 -85 c-7 -7 -12 -8 -12 -2 0 14 12 26 19 19 2 -3 -1 -11 -7 -17z"/>
<path d="M916 545 c-9 -26 -7 -32 5 -12 6 10 9 21 6 23 -2 3 -7 -2 -11 -11z"/>
<path d="M891 494 c0 -11 3 -14 6 -6 3 7 2 16 -1 19 -3 4 -6 -2 -5 -13z"/>
<path d="M365 400 c39 -41 85 -91 103 -110 33 -35 178 -247 189 -276 3 -8 15
-14 26 -12 16 2 29 24 55 93 19 50 47 117 63 150 15 34 31 73 34 88 4 15 11
30 16 33 5 3 9 12 9 20 0 28 -17 5 -30 -41 -7 -25 -16 -45 -21 -45 -4 0 -10
-13 -14 -29 -3 -15 -15 -37 -25 -49 -10 -11 -18 -22 -17 -24 1 -2 -3 3 -10 10
-9 11 -11 4 -8 -34 5 -56 -8 -89 -25 -64 -5 8 -12 20 -15 25 -3 6 -7 5 -11 -2
-10 -23 -22 -14 -29 25 -4 20 -10 31 -12 24 -3 -7 0 -25 5 -41 12 -33 4 -90
-9 -69 -5 7 -6 28 -3 45 4 18 2 33 -3 33 -17 0 -23 -13 -12 -27 7 -8 8 -13 1
-13 -12 0 -22 23 -23 53 0 12 -3 16 -6 9 -4 -10 -8 -10 -19 -1 -16 13 -2 39
22 39 8 0 14 5 14 11 0 5 -4 7 -10 4 -5 -3 -10 -1 -10 4 0 19 -18 12 -25 -10
-7 -20 -8 -20 -24 -5 -14 15 -14 18 -1 26 12 8 12 10 1 10 -7 0 -57 44 -110
98 -116 119 -164 156 -66 52z m335 -299 c0 -5 -6 -12 -12 -15 -10 -5 -10 -7 0
-12 6 -3 10 -10 7 -15 -4 -5 -12 -3 -19 3 -10 10 -11 17 -2 30 12 19 26 24 26
9z"/>
<path d="M867 433 c-4 -3 -7 -11 -7 -17 0 -6 5 -5 12 2 6 6 9 14 7 17 -3 3 -9
2 -12 -2z"/>
<path d="M1700 433 c0 -5 7 -18 15 -29 13 -18 14 -18 8 4 -5 22 -23 41 -23 25z"/>
<path d="M1747 353 c-3 -16 -2 -32 3 -38 5 -5 9 -13 10 -17 0 -4 7 -23 15 -42
8 -20 15 -40 15 -46 0 -6 5 -8 10 -5 6 3 10 13 10 21 0 8 -4 12 -10 9 -5 -3
-10 3 -10 15 0 12 5 18 10 15 6 -3 10 3 10 14 0 14 -5 19 -15 14 -23 -8 -45
26 -38 60 3 15 3 27 0 27 -2 0 -7 -12 -10 -27z"/>
<path d="M1860 270 c0 -5 7 -10 16 -10 8 0 12 5 9 10 -3 6 -10 10 -16 10 -5 0
-9 -4 -9 -10z"/>
<path d="M752 244 c-7 -8 -8 -14 -3 -14 10 0 25 19 20 25 -2 1 -10 -3 -17 -11z"/>
<path d="M1980 250 c0 -5 5 -10 10 -10 6 0 10 5 10 10 0 6 -4 10 -10 10 -5 0
-10 -4 -10 -10z"/>
<path d="M1950 219 c0 -5 5 -7 10 -4 6 3 10 8 10 11 0 2 -4 4 -10 4 -5 0 -10
-5 -10 -11z"/>
<path d="M622 200 c-7 -11 -8 -20 -3 -20 9 0 24 30 18 36 -1 2 -8 -6 -15 -16z"/>
<path d="M710 172 c0 -23 3 -42 8 -42 9 0 7 68 -2 77 -3 4 -6 -12 -6 -35z"/>
<path d="M670 180 c0 -11 5 -20 10 -20 6 0 10 9 10 20 0 11 -4 20 -10 20 -5 0
-10 -9 -10 -20z"/>
<path d="M1945 180 c4 -6 11 -8 16 -5 14 9 11 15 -7 15 -8 0 -12 -5 -9 -10z"/>
</g>
</svg>
